

<svg width="16" height="18" viewBox="0 0 16 18" fill="none" xmlns="http://www.w3.org/2000/svg">
<path fill-rule="evenodd" clip-rule="evenodd" d="M7.77343 17.2617C7.86572 17.3099 7.96891 17.3344 8.0721 17.3336C8.17529 17.3328 8.27764 17.3075 8.37076 17.2584L11.344 15.669C12.1871 15.2196 12.8474 14.717 13.3625 14.1319C14.4825 12.8572 15.0941 11.2302 15.0832 9.55252L15.048 4.01864C15.0446 3.38125 14.626 2.8125 14.0068 2.60576L8.47563 0.749962C8.14257 0.637193 7.77763 0.639644 7.45044 0.755683L1.94022 2.67767C1.32444 2.89258 0.913352 3.46542 0.916707 4.10363L0.951943 9.63342C0.96285 11.3135 1.59542 12.9332 2.73387 14.1949C3.25402 14.7718 3.92014 15.267 4.77251 15.7091L7.77343 17.2617ZM6.98633 10.7578C7.11049 10.8771 7.27157 10.9359 7.43265 10.9343C7.59373 10.9335 7.75397 10.873 7.87645 10.752L11.1257 7.54874C11.3698 7.30767 11.3673 6.92033 11.1207 6.68254C10.8732 6.44474 10.4747 6.44637 10.2305 6.68744L7.42342 9.45438L6.27406 8.34957C6.02657 8.11177 5.62891 8.11422 5.38394 8.35529C5.1398 8.59635 5.14232 8.98369 5.38981 9.22149L6.98633 10.7578Z" fill="#3669C9"/>
</svg>
