<svg width="20" height="18" viewBox="0 0 20 18" fill="none" xmlns="http://www.w3.org/2000/svg">
<path d="M20 10.5C19.9988 10.1909 19.902 9.88968 19.723 9.63765C19.544 9.38562 19.2915 9.19504 19 9.092V4.5C18.9987 3.30693 18.5242 2.16311 17.6806 1.31948C16.8369 0.475854 15.6931 0.00132343 14.5 0H5.50004C4.30697 0.00132343 3.16315 0.475854 2.31952 1.31948C1.47589 2.16311 1.00136 3.30693 1.00004 4.5V9.092C0.6731 9.20495 0.395565 9.42799 0.214907 9.72296C0.0342496 10.0179 -0.038306 10.3665 0.00965222 10.7091C0.0576104 11.0516 0.223102 11.3669 0.477819 11.6009C0.732536 11.8349 1.06065 11.9732 1.40604 11.992L3.01904 17.639C3.0492 17.7432 3.11243 17.8348 3.1992 17.8999C3.28596 17.965 3.39155 18.0002 3.50004 18H8.28904C8.38861 17.9999 8.48586 17.97 8.56835 17.9142C8.65084 17.8585 8.7148 17.7793 8.75204 17.687L9.83704 15H10.152L11.146 17.674C11.1816 17.7697 11.2456 17.8523 11.3294 17.9106C11.4133 17.9688 11.5129 18.0001 11.615 18H16.5C16.6088 18 16.7146 17.9646 16.8014 17.8991C16.8882 17.8336 16.9512 17.7416 16.981 17.637L18.594 11.99C18.9736 11.9662 19.33 11.799 19.591 11.5224C19.852 11.2458 19.9982 10.8803 20 10.5ZM2.00004 4.5C2.00004 3.57174 2.36879 2.6815 3.02516 2.02513C3.68154 1.36875 4.57178 1 5.50004 1H14.5C15.4283 1 16.3185 1.36875 16.9749 2.02513C17.6313 2.6815 18 3.57174 18 4.5V9H17.984C17.9673 7.88505 17.6253 6.79926 17 5.876V4.5C17 3.83696 16.7366 3.20107 16.2678 2.73223C15.799 2.26339 15.1631 2 14.5 2H5.50004C4.837 2 4.20111 2.26339 3.73227 2.73223C3.26343 3.20107 3.00004 3.83696 3.00004 4.5V5.876C2.37475 6.79926 2.03275 7.88505 2.01604 9H2.00004V4.5ZM5.50004 5.429C6.83004 5.429 7.91104 7.014 7.98604 9H3.01404C3.08904 7.014 4.17004 5.429 5.50004 5.429ZM8.98404 9C8.90004 6.463 7.37604 4.429 5.50004 4.429C4.96369 4.43787 4.4419 4.60485 4.00004 4.909V4.5C4.00004 4.10218 4.15807 3.72064 4.43938 3.43934C4.72068 3.15804 5.10221 3 5.50004 3H14.5C14.8979 3 15.2794 3.15804 15.5607 3.43934C15.842 3.72064 16 4.10218 16 4.5V4.909C15.5582 4.60485 15.0364 4.43787 14.5 4.429C12.624 4.429 11.1 6.463 11.016 9H8.98404ZM14.5 5.429C15.83 5.429 16.911 7.014 16.986 9H12.014C12.089 7.014 13.17 5.429 14.5 5.429ZM16.123 17H11.963L10.969 14.326C10.9335 14.2303 10.8695 14.1477 10.7857 14.0894C10.7018 14.0312 10.6021 13.9999 10.5 14H9.50004C9.4003 13.9999 9.30282 14.0297 9.22014 14.0855C9.13745 14.1413 9.07334 14.2205 9.03604 14.313L7.95104 17H3.87704L2.44904 12H17.549L16.123 17ZM18.5 11H1.50004C1.36743 11 1.24025 10.9473 1.14648 10.8536C1.05272 10.7598 1.00004 10.6326 1.00004 10.5C1.00004 10.3674 1.05272 10.2402 1.14648 10.1464C1.24025 10.0527 1.36743 10 1.50004 10H18.5C18.6326 10 18.7598 10.0527 18.8536 10.1464C18.9474 10.2402 19 10.3674 19 10.5C19 10.6326 18.9474 10.7598 18.8536 10.8536C18.7598 10.9473 18.6326 11 18.5 11Z" fill="#FFC120"/>
</svg>
