<svg width="24" height="24" viewBox="0 0 24 24" fill="none" xmlns="http://www.w3.org/2000/svg">
<path d="M19.776 5.37536C17.9911 4.19924 15.89 3.59539 13.753 3.64436C8.333 3.64436 2.5 7.02636 2.5 14.4524V16.4524C2.5 20.2224 5.305 21.9794 7.2 21.9794C8.26106 21.9229 9.28105 21.5507 10.129 20.9104C10.814 20.3829 11.638 20.0667 12.5 20.0004C12.758 20.0004 13.1 20.0324 13.5 20.0694C15.311 20.2364 18.341 20.5134 20.4 18.6364C21.8 17.3634 22.5 15.2984 22.5 12.5004V10.5004C22.5094 9.4867 22.2651 8.48677 21.7894 7.59165C21.3136 6.69652 20.6215 5.93463 19.776 5.37536ZM13.753 4.64436C17.484 4.64436 21.5 6.47736 21.5 10.5004C21.5 13.0054 20.9 14.8214 19.723 15.9004C17.992 17.4814 15.344 17.2374 13.589 17.0764C13.154 17.0364 12.782 17.0034 12.5 17.0034C11.4494 17.0613 10.4399 17.4307 9.6 18.0644C8.90657 18.5977 8.07237 18.9168 7.2 18.9824C5.708 18.9824 3.5 17.5434 3.5 14.4554C3.5 7.71336 8.815 4.64436 13.753 4.64436ZM19.723 17.9004C17.992 19.4814 15.344 19.2374 13.589 19.0764C13.154 19.0364 12.782 19.0034 12.5 19.0034C11.4494 19.0613 10.4399 19.4307 9.6 20.0644C8.90657 20.5977 8.07237 20.9168 7.2 20.9824C6.43174 20.9211 5.69927 20.6318 5.0964 20.1517C4.49353 19.6716 4.04769 19.0224 3.816 18.2874C4.23035 18.791 4.74546 19.2024 5.32824 19.4952C5.91102 19.788 6.54859 19.9556 7.2 19.9874C8.26106 19.9309 9.28105 19.5587 10.129 18.9184C10.8131 18.388 11.6371 18.069 12.5 18.0004C12.758 18.0004 13.1 18.0324 13.5 18.0694C15.311 18.2364 18.341 18.5134 20.4 16.6364C20.5882 16.4636 20.7631 16.2767 20.923 16.0774C20.6687 16.7693 20.258 17.3932 19.723 17.9004Z" fill="#9B81E5"/>
<path d="M7.19996 17.9794C7.84725 17.902 8.46016 17.6457 8.96996 17.2394C9.99733 16.4848 11.2263 16.0534 12.5 16.0004C12.812 16.0004 13.222 16.0344 13.718 16.0804C14.28 16.1314 14.918 16.1894 15.579 16.1894C16.7245 16.2766 17.8648 15.9642 18.806 15.3054C19.856 14.4464 20.389 12.8304 20.389 10.5054C20.389 7.16941 16.949 5.64941 13.753 5.64941C13.1609 5.65387 12.5702 5.70739 11.987 5.80941H11.968C8.65896 6.37941 4.61096 8.61641 4.61096 14.4544C4.61096 17.0914 6.38896 17.9794 7.19996 17.9794ZM8.44096 8.32241C8.05196 9.37741 7.54996 10.7534 7.35496 11.3434C7.33217 11.4063 7.32222 11.473 7.32568 11.5398C7.32915 11.6066 7.34598 11.672 7.37516 11.7321C7.40434 11.7923 7.44528 11.8459 7.49557 11.89C7.54587 11.934 7.60448 11.9676 7.66795 11.9886C7.73142 12.0096 7.79845 12.0176 7.86509 12.0123C7.93173 12.0069 7.99662 11.9882 8.05591 11.9574C8.11521 11.9265 8.16772 11.884 8.21032 11.8325C8.25293 11.781 8.28477 11.7215 8.30396 11.6574C8.58196 10.8154 9.53696 8.24041 9.80396 7.51041C10.2633 7.29807 10.7397 7.12446 11.228 6.99141L10.028 10.3314C9.98324 10.4559 9.9897 10.5931 10.0459 10.7129C10.1022 10.8327 10.2036 10.9253 10.328 10.9704C10.383 10.9909 10.4413 11.001 10.5 11.0004C10.6028 11.0003 10.7032 10.9684 10.7873 10.9092C10.8714 10.85 10.9352 10.7662 10.97 10.6694L12.381 6.75341C12.835 6.68324 13.2936 6.64681 13.753 6.64441C16.467 6.64441 19.389 7.85141 19.389 10.5004C19.389 12.5154 18.98 13.8714 18.173 14.5304C17.4079 15.0375 16.4933 15.2698 15.579 15.1894C14.962 15.1894 14.35 15.1334 13.793 15.0834C13.277 15.0354 12.835 15.0004 12.5 15.0004C11.0389 15.0501 9.62575 15.534 8.44096 16.3904C8.07769 16.6789 7.65317 16.8804 7.19996 16.9794C7.18396 16.9794 5.61096 16.7794 5.61096 14.4524C5.54444 13.277 5.76773 12.1032 6.2612 11.0343C6.75466 9.96546 7.50319 9.03419 8.44096 8.32241Z" fill="#9B81E5"/>
<path d="M16 13C16.3956 13 16.7822 12.8827 17.1111 12.6629C17.44 12.4432 17.6964 12.1308 17.8478 11.7654C17.9991 11.3999 18.0387 10.9978 17.9616 10.6098C17.8844 10.2219 17.6939 9.86549 17.4142 9.58579C17.1345 9.30608 16.7781 9.1156 16.3902 9.03843C16.0022 8.96126 15.6001 9.00087 15.2346 9.15224C14.8692 9.30362 14.5568 9.55996 14.3371 9.88886C14.1173 10.2178 14 10.6044 14 11C14 11.5304 14.2107 12.0391 14.5858 12.4142C14.9609 12.7893 15.4696 13 16 13ZM16 10C16.1978 10 16.3911 10.0587 16.5556 10.1685C16.72 10.2784 16.8482 10.4346 16.9239 10.6173C16.9996 10.8 17.0194 11.0011 16.9808 11.1951C16.9422 11.3891 16.847 11.5673 16.7071 11.7071C16.5673 11.847 16.3891 11.9422 16.1951 11.9808C16.0011 12.0194 15.8 11.9996 15.6173 11.9239C15.4346 11.8482 15.2784 11.72 15.1685 11.5556C15.0586 11.3911 15 11.1978 15 11C15 10.7348 15.1054 10.4804 15.2929 10.2929C15.4804 10.1054 15.7348 10 16 10Z" fill="#9B81E5"/>
</svg>
