<svg width="19.3" height="19.3" viewBox="0 0 20 20" fill="none" xmlns="http://www.w3.org/2000/svg">
<path d="M20 10.7498C19.998 10.3114 19.9716 9.87338 19.921 9.43784C19.9058 9.31625 19.8465 9.20447 19.7544 9.12373C19.6622 9.04298 19.5436 8.9989 19.421 8.99984H19V6.49984C18.9974 5.97898 18.8322 5.47194 18.5274 5.04955C18.2226 4.62716 17.7935 4.31052 17.3 4.14384L18.5 2.26784C18.5566 2.17917 18.5838 2.07492 18.5777 1.96991C18.5716 1.8649 18.5325 1.7645 18.4661 1.68297C18.3996 1.60144 18.3091 1.54295 18.2075 1.51582C18.1059 1.48869 17.9983 1.4943 17.9 1.53184L15.653 2.38084L14.435 0.251845C14.3876 0.179848 14.323 0.120755 14.2471 0.0798684C14.1712 0.0389814 14.0863 0.0175781 14 0.0175781C13.9138 0.0175781 13.8289 0.0389814 13.753 0.0798684C13.6771 0.120755 13.6125 0.179848 13.565 0.251845L12.351 2.38084L10.1 1.53184C10.0018 1.4943 9.89419 1.48869 9.79257 1.51582C9.69094 1.54295 9.60046 1.60144 9.534 1.68297C9.46754 1.7645 9.42848 1.8649 9.42239 1.96991C9.41629 2.07492 9.44346 2.17917 9.50004 2.26784L10.7 4.14384C10.2201 4.30622 9.80099 4.61104 9.49869 5.01768C9.19639 5.42432 9.02524 5.91344 9.00804 6.41984V6.44584C9.00804 6.46384 9.00304 6.48084 9.00304 6.49984V8.99984H2.07504C1.9525 8.9989 1.83389 9.04298 1.74172 9.12373C1.64954 9.20447 1.59023 9.31625 1.57504 9.43784C1.5258 9.87346 1.50076 10.3115 1.50004 10.7498C1.50482 11.3035 1.5587 11.8557 1.66104 12.3998C1.14597 12.6035 0.708217 12.9644 0.410024 13.4312C0.111831 13.898 -0.03163 14.4469 3.74052e-05 14.9998C3.74052e-05 16.5828 0.706037 19.6728 2.40804 19.9908C2.46867 20.0026 2.53027 20.0087 2.59204 20.0088C2.88759 19.9871 3.17234 19.8885 3.41804 19.7228C3.59109 19.6024 3.79082 19.5259 4.00004 19.4998C4.20591 19.5328 4.40272 19.608 4.57804 19.7208C4.87263 19.9186 5.22384 20.0145 5.57804 19.9938C5.84102 19.9438 6.09141 19.8419 6.3146 19.694C6.5378 19.5462 6.72933 19.3554 6.87804 19.1328C8.09097 19.698 9.41191 19.9938 10.75 19.9998C10.95 19.9998 11.15 19.9818 11.35 19.9698C11.3983 19.9873 11.4488 19.9974 11.5 19.9998H16.5C17.1631 19.9998 17.799 19.7365 18.2678 19.2676C18.7366 18.7988 19 18.1629 19 17.4998V14.9108C19.6562 13.6219 19.9988 12.1962 20 10.7498ZM18 6.49984V7.58684L13.949 4.99984H16.5C16.8979 4.99984 17.2794 5.15788 17.5607 5.43918C17.842 5.72049 18 6.10202 18 6.49984ZM12.4 3.46784C12.5115 3.51018 12.6345 3.51128 12.7467 3.47094C12.8589 3.4306 12.953 3.35147 13.012 3.24784L14 1.50884L14.992 3.24784C15.0511 3.35147 15.1452 3.4306 15.2574 3.47094C15.3696 3.51128 15.4926 3.51018 15.604 3.46784L16.847 2.99984L16.21 3.99984H11.79L11.153 2.99984L12.4 3.46784ZM11.5 4.99984H12.09L18 8.77384V8.99984H14.638L10.027 6.23284C10.0895 5.88746 10.2711 5.57492 10.5403 5.34962C10.8094 5.12433 11.149 5.00056 11.5 4.99984ZM10 7.38284L12.7 8.99984H10V7.38284ZM5.43104 19.0048C5.29508 18.966 5.16493 18.9092 5.04404 18.8358C4.72901 18.6396 4.37039 18.5242 4.00004 18.4998C3.61795 18.5183 3.24794 18.6396 2.92904 18.8508C2.8245 18.9178 2.7115 18.9706 2.59304 19.0078C1.68404 18.8378 1.00004 16.4588 1.00004 14.9998C1.00004 14.2108 1.28604 13.1998 3.41304 13.0328C3.41366 13.3842 3.44714 13.7347 3.51304 14.0798C3.53758 14.1908 3.59919 14.2901 3.68772 14.3613C3.77624 14.4326 3.8864 14.4716 4.00004 14.4718C4.03571 14.4718 4.07126 14.4678 4.10604 14.4598C4.23535 14.4318 4.34827 14.3536 4.42006 14.2425C4.49185 14.1313 4.51666 13.9963 4.48904 13.8668C4.44034 13.5881 4.41558 13.3058 4.41504 13.0228C6.70004 13.1418 7.00004 14.1908 7.00004 14.9998C7.00004 16.5678 6.40004 18.8508 5.43104 19.0048ZM7.36504 18.2588C7.49477 17.9485 7.6014 17.6289 7.68404 17.3028C8.7251 17.7968 9.86929 18.0344 11.021 17.9957C12.1726 17.957 13.2983 17.6432 14.3039 17.0805C15.3094 16.5178 16.1657 15.7226 16.8011 14.7613C17.4365 13.8 17.8325 12.7005 17.956 11.5548C17.9637 11.4894 17.9583 11.4231 17.9403 11.3598C17.9223 11.2964 17.8919 11.2373 17.8509 11.1857C17.8099 11.1341 17.7591 11.0911 17.7015 11.0593C17.6439 11.0274 17.5805 11.0072 17.515 10.9998C17.4495 10.9914 17.383 10.9962 17.3193 11.014C17.2557 11.0318 17.1963 11.0622 17.1447 11.1035C17.0931 11.1447 17.0503 11.1959 17.0189 11.2541C16.9876 11.3122 16.9682 11.3761 16.962 11.4418C16.8527 12.4497 16.4992 13.4158 15.9321 14.2561C15.365 15.0965 14.6015 15.7859 13.7078 16.2645C12.8141 16.743 11.8171 16.9964 10.8033 17.0026C9.78951 17.0087 8.78953 16.7675 7.89004 16.2998C7.95758 15.8697 7.99434 15.4352 8.00004 14.9998C8.00004 13.7058 7.37604 12.1778 4.51204 12.0158C4.55179 11.8114 4.60865 11.6107 4.68204 11.4158C4.72724 11.2929 4.72237 11.157 4.66846 11.0376C4.61455 10.9182 4.51591 10.8247 4.39377 10.7773C4.27163 10.7298 4.13575 10.7322 4.01536 10.7839C3.89497 10.8357 3.7997 10.9326 3.75004 11.0538C3.6324 11.3653 3.54695 11.688 3.49504 12.0168C3.20387 12.0317 2.91395 12.0651 2.62704 12.1168C2.54675 11.6655 2.50427 11.2083 2.50004 10.7498C2.50004 10.5288 2.51204 10.2548 2.52904 9.99984H18.971C18.988 10.2548 19 10.5288 19 10.7498C19.0046 12.1289 18.6623 13.487 18.0045 14.6991C17.3468 15.9112 16.3948 16.9384 15.2361 17.6862C14.0773 18.434 12.7492 18.8784 11.3737 18.9785C9.9983 19.0785 8.61978 18.8311 7.36504 18.2588ZM18 17.4998C18 17.8977 17.842 18.2792 17.5607 18.5605C17.2794 18.8418 16.8979 18.9998 16.5 18.9998H14.911C16.1112 18.3923 17.1651 17.5315 18 16.4768V17.4998Z" fill="#FE6E4C"/>
</svg>
